<svg width="211" height="150" xmlns="http://www.w3.org/2000/svg" fill="none">
 <title>background-decor</title>
 <defs>
  <clipPath id="clip0_2853_20078">
   <rect id="svg_1" fill="white" height="150" width="210.667"/>
  </clipPath>
 </defs>
 <g>
  <title>Layer 1</title>
  <g id="svg_2" clip-path="url(#clip0_2853_20078)">
   <path id="svg_3" fill-opacity="0.2" fill="white" d="m122.141,108.243c-6.052,-0.362 -12.127,-1.182 -18.194,-2.484c-50.821,-10.903 -88.3676,-52.8634 -100.8774,-105.759l-3.0696,0c12.5744,54.1985 50.927,97.4525 103.318,108.693c6.794,1.457 13.593,2.327 20.356,2.64c7.658,14.918 18.148,27.907 30.737,38.667l4.713,0c-13.107,-10.605 -24.041,-23.572 -32.003,-38.555c13.866,0.257 27.546,-1.812 40.675,-5.935c20.159,28.012 55.223,44.136 93.245,43.483l0,-2.99c-36.805,0.654 -70.603,-14.815 -90.237,-41.476c38.017,-12.929 71.116,-43.1274 90.237,-83.853l0,-7.3426c-18.411,43.4567 -52.646,75.5288 -92.06,88.6286c-4.485,-6.5554 -8.138,-13.7438 -10.804,-21.4976c-1.452,-4.2225 -2.57,-8.4927 -3.368,-12.7868c32.302,-8.3052 60.74,-33.1968 75.91,-67.6756l-3.278,0c-14.915,33.0143 -42.266,56.6652 -73.133,64.6919c-3.345,-22.1655 1.746,-44.8162 13.526,-64.6919l-3.472,0c-11.527,20.1319 -16.449,42.9685 -12.986,65.4046c-12.31,2.7864 -25.128,3.0906 -37.9,0.5234c-2.115,-22.4196 2.028,-45.0037 11.434,-65.928l-3.289,0c-9.098,20.7247 -13.158,43.0316 -11.226,65.2522c-32.491,-7.7226 -57.45,-32.7596 -69.018,-65.2522l-3.1703,0c11.8153,34.1637 38.0153,60.6137 72.5023,68.4047c1.003,8.9097 2.978,17.7927 5.987,26.5415c1.575,4.5797 3.395,9.0148 5.445,13.2968zm29.744,-39.8633c-12.347,2.7716 -25.209,3.1229 -38.073,0.671c1.009,8.3732 2.898,16.7117 5.721,24.92c1.714,4.9866 3.73,9.7993 6.025,14.4283c13.757,0.434 27.363,-1.485 40.435,-5.486c-4.396,-6.5646 -7.994,-13.7426 -10.653,-21.4751c-1.485,-4.3166 -2.632,-8.6771 -3.455,-13.0582z" clip-rule="evenodd" fill-rule="evenodd"/>
  </g>
 </g>
</svg>